{
  "accessors": [
    {
      "bufferView": 0,
      "componentType": 5121,
      "count": 36,
      "type": "SCALAR",
      "max": [
        7.0
      ],
      "min": [
        0.0
      ]
    },
    {
      "bufferView": 1,
      "componentType": 5126,
      "count": 8,
      "type": "VEC3",
      "max": [
        -222.6033,
        5.154,
        -15.177702
      ],
      "min": [
        -222.6043,
        2.83,
        -17.8992748
      ]
    }
  ],
  "asset": {
    "copyright": "2019 (c) Smart2IT B.V.",
    "generator": "Smart2IT Revit glTF Exporter v0.5",
    "version": "2.0"
  },
  "buffers": [
    {
      "uri": "01_015_001.bin",
      "byteLength": 132
    }
  ],
  "bufferViews": [
    {
      "buffer": 0,
      "byteLength": 36,
      "target": 34963
    },
    {
      "buffer": 0,
      "byteOffset": 36,
      "byteLength": 96,
      "target": 34962
    }
  ],
  "materials": [
    {
      "name": "Wandsticker",
      "pbrMetallicRoughness": {
        "baseColorFactor": [
          0.470588237,
          0.470588237,
          0.470588237,
          1.0
        ],
        "metallicFactor": 0.0
      }
    }
  ],
  "meshes": [
    {
      "primitives": [
        {
          "attributes": {
            "POSITION": 1
          },
          "indices": 0,
          "material": 0
        }
      ]
    }
  ],
  "nodes": [
    {
      "matrix": [
        1.0,
        0.0,
        0.0,
        0.0,
        0.0,
        1.0,
        0.0,
        0.0,
        0.0,
        0.0,
        1.0,
        0.0,
        225.0,
        0.0,
        15.0,
        1.0
      ],
      "mesh": 0,
      "name": "[8795773]27_wandsticker"
    }
  ],
  "scene": 0,
  "scenes": [
    {
      "nodes": [
        0
      ],
      "name": "Cell"
    }
  ]
}