{
  "accessors": [
    {
      "bufferView": 0,
      "componentType": 5121,
      "count": 60,
      "type": "SCALAR",
      "max": [
        11.0
      ],
      "min": [
        0.0
      ]
    },
    {
      "bufferView": 1,
      "componentType": 5126,
      "count": 12,
      "type": "VEC3",
      "max": [
        -114.277,
        3.244,
        -39.2699966
      ],
      "min": [
        -114.3,
        2.97999835,
        -41.4581032
      ]
    },
    {
      "bufferView": 2,
      "componentType": 5121,
      "count": 36,
      "type": "SCALAR",
      "max": [
        7.0
      ],
      "min": [
        0.0
      ]
    },
    {
      "bufferView": 3,
      "componentType": 5126,
      "count": 8,
      "type": "VEC3",
      "max": [
        -114.277,
        3.01695037,
        -39.2699966
      ],
      "min": [
        -114.3,
        2.84,
        -41.458
      ]
    },
    {
      "bufferView": 4,
      "componentType": 5121,
      "count": 60,
      "type": "SCALAR",
      "max": [
        11.0
      ],
      "min": [
        0.0
      ]
    },
    {
      "bufferView": 5,
      "componentType": 5126,
      "count": 12,
      "type": "VEC3",
      "max": [
        -114.065,
        3.142,
        -39.2699966
      ],
      "min": [
        -114.3,
        3.119,
        -41.670002
      ]
    },
    {
      "bufferView": 6,
      "componentType": 5123,
      "count": 18747,
      "type": "SCALAR",
      "max": [
        6030.0
      ],
      "min": [
        0.0
      ]
    },
    {
      "bufferView": 7,
      "componentType": 5126,
      "count": 6031,
      "type": "VEC3",
      "max": [
        -114.045,
        3.155,
        -39.2699966
      ],
      "min": [
        -114.3,
        3.095,
        -41.69
      ]
    },
    {
      "bufferView": 8,
      "componentType": 5121,
      "count": 42,
      "type": "SCALAR",
      "max": [
        8.0
      ],
      "min": [
        0.0
      ]
    },
    {
      "bufferView": 9,
      "componentType": 5126,
      "count": 9,
      "type": "VEC3",
      "max": [
        -114.277,
        3.14300013,
        -41.452
      ],
      "min": [
        -114.3,
        2.986,
        -41.458
      ]
    },
    {
      "bufferView": 10,
      "componentType": 5121,
      "count": 60,
      "type": "SCALAR",
      "max": [
        11.0
      ],
      "min": [
        0.0
      ]
    },
    {
      "bufferView": 11,
      "componentType": 5126,
      "count": 12,
      "type": "VEC3",
      "max": [
        -114.065,
        3.148,
        -39.2699966
      ],
      "min": [
        -114.3,
        3.137,
        -41.670002
      ]
    },
    {
      "bufferView": 12,
      "componentType": 5121,
      "count": 36,
      "type": "SCALAR",
      "max": [
        7.0
      ],
      "min": [
        0.0
      ]
    },
    {
      "bufferView": 13,
      "componentType": 5126,
      "count": 8,
      "type": "VEC3",
      "max": [
        -114.277,
        3.14300013,
        -39.2759972
      ],
      "min": [
        -114.283,
        2.98610234,
        -41.452
      ]
    },
    {
      "bufferView": 14,
      "componentType": 5121,
      "count": 36,
      "type": "SCALAR",
      "max": [
        7.0
      ],
      "min": [
        0.0
      ]
    },
    {
      "bufferView": 15,
      "componentType": 5126,
      "count": 8,
      "type": "VEC3",
      "max": [
        -114.277,
        2.84,
        -39.2699966
      ],
      "min": [
        -114.321007,
        2.77000022,
        -41.4139977
      ]
    },
    {
      "bufferView": 16,
      "componentType": 5121,
      "count": 60,
      "type": "SCALAR",
      "max": [
        11.0
      ],
      "min": [
        0.0
      ]
    },
    {
      "bufferView": 17,
      "componentType": 5126,
      "count": 12,
      "type": "VEC3",
      "max": [
        -114.189,
        3.119,
        -40.276
      ],
      "min": [
        -114.3,
        3.075,
        -41.5459976
      ]
    },
    {
      "bufferView": 18,
      "componentType": 5121,
      "count": 9,
      "type": "SCALAR",
      "max": [
        4.0
      ],
      "min": [
        0.0
      ]
    },
    {
      "bufferView": 19,
      "componentType": 5126,
      "count": 5,
      "type": "VEC3",
      "max": [
        -114.277,
        3.075,
        -39.2699966
      ],
      "min": [
        -114.277,
        2.77000022,
        -41.458
      ]
    },
    {
      "bufferView": 20,
      "componentType": 5121,
      "count": 6,
      "type": "SCALAR",
      "max": [
        3.0
      ],
      "min": [
        0.0
      ]
    },
    {
      "bufferView": 21,
      "componentType": 5126,
      "count": 4,
      "type": "VEC3",
      "max": [
        -114.203995,
        3.075,
        -39.2699966
      ],
      "min": [
        -114.203995,
        2.77000022,
        -41.458
      ]
    },
    {
      "bufferView": 22,
      "componentType": 5121,
      "count": 27,
      "type": "SCALAR",
      "max": [
        8.0
      ],
      "min": [
        0.0
      ]
    },
    {
      "bufferView": 23,
      "componentType": 5126,
      "count": 9,
      "type": "VEC3",
      "max": [
        -114.203995,
        3.075,
        -39.2699966
      ],
      "min": [
        -114.277,
        2.77000022,
        -41.458
      ]
    },
    {
      "bufferView": 24,
      "componentType": 5121,
      "count": 60,
      "type": "SCALAR",
      "max": [
        11.0
      ],
      "min": [
        0.0
      ]
    },
    {
      "bufferView": 25,
      "componentType": 5126,
      "count": 12,
      "type": "VEC3",
      "max": [
        -114.258995,
        3.11,
        -39.2699966
      ],
      "min": [
        -114.3,
        3.075,
        -41.4759979
      ]
    },
    {
      "bufferView": 26,
      "componentType": 5121,
      "count": 36,
      "type": "SCALAR",
      "max": [
        7.0
      ],
      "min": [
        0.0
      ]
    },
    {
      "bufferView": 27,
      "componentType": 5126,
      "count": 8,
      "type": "VEC3",
      "max": [
        -114.065,
        3.12,
        -39.2699966
      ],
      "min": [
        -114.165,
        2.84,
        -41.5700035
      ]
    },
    {
      "bufferView": 28,
      "componentType": 5121,
      "count": 48,
      "type": "SCALAR",
      "max": [
        9.0
      ],
      "min": [
        0.0
      ]
    },
    {
      "bufferView": 29,
      "componentType": 5126,
      "count": 10,
      "type": "VEC3",
      "max": [
        -114.065,
        3.12,
        -41.5700035
      ],
      "min": [
        -114.3,
        2.84,
        -41.670002
      ]
    },
    {
      "bufferView": 30,
      "componentType": 5121,
      "count": 12,
      "type": "SCALAR",
      "max": [
        5.0
      ],
      "min": [
        0.0
      ]
    },
    {
      "bufferView": 31,
      "componentType": 5126,
      "count": 6,
      "type": "VEC3",
      "max": [
        -114.203995,
        3.075,
        -41.458
      ],
      "min": [
        -114.3,
        2.77000022,
        -41.458
      ]
    },
    {
      "bufferView": 32,
      "componentType": 5121,
      "count": 12,
      "type": "SCALAR",
      "max": [
        5.0
      ],
      "min": [
        0.0
      ]
    },
    {
      "bufferView": 33,
      "componentType": 5126,
      "count": 6,
      "type": "VEC3",
      "max": [
        -114.203995,
        3.075,
        -41.458
      ],
      "min": [
        -114.3,
        2.77000022,
        -41.531
      ]
    },
    {
      "bufferView": 34,
      "componentType": 5121,
      "count": 24,
      "type": "SCALAR",
      "max": [
        9.0
      ],
      "min": [
        0.0
      ]
    },
    {
      "bufferView": 35,
      "componentType": 5126,
      "count": 10,
      "type": "VEC3",
      "max": [
        -114.203995,
        3.075,
        -41.458
      ],
      "min": [
        -114.3,
        2.77000022,
        -41.531
      ]
    }
  ],
  "asset": {
    "copyright": "2019 (c) Smart2IT B.V.",
    "generator": "Smart2IT Revit glTF Exporter v0.5",
    "version": "2.0"
  },
  "buffers": [
    {
      "uri": "01_008_002.bin",
      "byteLength": 112312
    }
  ],
  "bufferViews": [
    {
      "buffer": 0,
      "byteLength": 60,
      "target": 34963
    },
    {
      "buffer": 0,
      "byteOffset": 60,
      "byteLength": 144,
      "target": 34962
    },
    {
      "buffer": 0,
      "byteOffset": 204,
      "byteLength": 36,
      "target": 34963
    },
    {
      "buffer": 0,
      "byteOffset": 240,
      "byteLength": 96,
      "target": 34962
    },
    {
      "buffer": 0,
      "byteOffset": 336,
      "byteLength": 60,
      "target": 34963
    },
    {
      "buffer": 0,
      "byteOffset": 396,
      "byteLength": 144,
      "target": 34962
    },
    {
      "buffer": 0,
      "byteOffset": 540,
      "byteLength": 37496,
      "target": 34963
    },
    {
      "buffer": 0,
      "byteOffset": 38036,
      "byteLength": 72372,
      "target": 34962
    },
    {
      "buffer": 0,
      "byteOffset": 110408,
      "byteLength": 44,
      "target": 34963
    },
    {
      "buffer": 0,
      "byteOffset": 110452,
      "byteLength": 108,
      "target": 34962
    },
    {
      "buffer": 0,
      "byteOffset": 110560,
      "byteLength": 60,
      "target": 34963
    },
    {
      "buffer": 0,
      "byteOffset": 110620,
      "byteLength": 144,
      "target": 34962
    },
    {
      "buffer": 0,
      "byteOffset": 110764,
      "byteLength": 36,
      "target": 34963
    },
    {
      "buffer": 0,
      "byteOffset": 110800,
      "byteLength": 96,
      "target": 34962
    },
    {
      "buffer": 0,
      "byteOffset": 110896,
      "byteLength": 36,
      "target": 34963
    },
    {
      "buffer": 0,
      "byteOffset": 110932,
      "byteLength": 96,
      "target": 34962
    },
    {
      "buffer": 0,
      "byteOffset": 111028,
      "byteLength": 60,
      "target": 34963
    },
    {
      "buffer": 0,
      "byteOffset": 111088,
      "byteLength": 144,
      "target": 34962
    },
    {
      "buffer": 0,
      "byteOffset": 111232,
      "byteLength": 12,
      "target": 34963
    },
    {
      "buffer": 0,
      "byteOffset": 111244,
      "byteLength": 60,
      "target": 34962
    },
    {
      "buffer": 0,
      "byteOffset": 111304,
      "byteLength": 8,
      "target": 34963
    },
    {
      "buffer": 0,
      "byteOffset": 111312,
      "byteLength": 48,
      "target": 34962
    },
    {
      "buffer": 0,
      "byteOffset": 111360,
      "byteLength": 28,
      "target": 34963
    },
    {
      "buffer": 0,
      "byteOffset": 111388,
      "byteLength": 108,
      "target": 34962
    },
    {
      "buffer": 0,
      "byteOffset": 111496,
      "byteLength": 60,
      "target": 34963
    },
    {
      "buffer": 0,
      "byteOffset": 111556,
      "byteLength": 144,
      "target": 34962
    },
    {
      "buffer": 0,
      "byteOffset": 111700,
      "byteLength": 36,
      "target": 34963
    },
    {
      "buffer": 0,
      "byteOffset": 111736,
      "byteLength": 96,
      "target": 34962
    },
    {
      "buffer": 0,
      "byteOffset": 111832,
      "byteLength": 48,
      "target": 34963
    },
    {
      "buffer": 0,
      "byteOffset": 111880,
      "byteLength": 120,
      "target": 34962
    },
    {
      "buffer": 0,
      "byteOffset": 112000,
      "byteLength": 12,
      "target": 34963
    },
    {
      "buffer": 0,
      "byteOffset": 112012,
      "byteLength": 72,
      "target": 34962
    },
    {
      "buffer": 0,
      "byteOffset": 112084,
      "byteLength": 12,
      "target": 34963
    },
    {
      "buffer": 0,
      "byteOffset": 112096,
      "byteLength": 72,
      "target": 34962
    },
    {
      "buffer": 0,
      "byteOffset": 112168,
      "byteLength": 24,
      "target": 34963
    },
    {
      "buffer": 0,
      "byteOffset": 112192,
      "byteLength": 120,
      "target": 34962
    }
  ],
  "materials": [
    {
      "name": "s1_bitumen",
      "pbrMetallicRoughness": {
        "baseColorFactor": [
          0.254901975,
          0.254901975,
          0.254901975,
          1.0
        ],
        "metallicFactor": 0.0
      }
    },
    {
      "name": "m1_isolatie",
      "pbrMetallicRoughness": {
        "baseColorFactor": [
          0.768627465,
          0.9882353,
          0.619607866,
          1.0
        ],
        "metallicFactor": 0.0
      }
    },
    {
      "name": "i4_underlayment",
      "pbrMetallicRoughness": {
        "baseColorFactor": [
          0.458823532,
          0.333333343,
          0.219607845,
          1.0
        ],
        "metallicFactor": 0.0
      }
    },
    {
      "name": "h4_aluminium",
      "pbrMetallicRoughness": {
        "baseColorFactor": [
          0.956862748,
          0.956862748,
          0.956862748,
          1.0
        ],
        "metallicFactor": 0.0
      }
    },
    {
      "name": "i2_naaldhout (vuren)",
      "pbrMetallicRoughness": {
        "baseColorFactor": [
          0.9019608,
          0.8352941,
          0.6745098,
          1.0
        ],
        "metallicFactor": 0.0
      }
    },
    {
      "name": "i3_loofhout (hardhout)",
      "pbrMetallicRoughness": {
        "baseColorFactor": [
          0.945098042,
          0.933333337,
          0.8862745,
          1.0
        ],
        "metallicFactor": 0.0
      }
    },
    {
      "name": "i4_multiplex",
      "pbrMetallicRoughness": {
        "baseColorFactor": [
          0.9019608,
          0.8352941,
          0.6745098,
          1.0
        ],
        "metallicFactor": 0.0
      }
    },
    {
      "name": "Walls material#7F7F7FFF",
      "pbrMetallicRoughness": {
        "baseColorFactor": [
          0.498039216,
          0.498039216,
          0.498039216,
          1.0
        ],
        "metallicFactor": 0.0
      }
    },
    {
      "name": "i4_multiplex_staande arcering",
      "pbrMetallicRoughness": {
        "baseColorFactor": [
          0.929411769,
          0.882352948,
          0.8666667,
          1.0
        ],
        "metallicFactor": 0.0
      }
    },
    {
      "name": "g2_baksteen_Sonsbeek",
      "pbrMetallicRoughness": {
        "baseColorFactor": [
          0.521568656,
          0.435294122,
          0.372549027,
          1.0
        ],
        "metallicFactor": 0.0
      }
    }
  ],
  "meshes": [
    {
      "primitives": [
        {
          "attributes": {
            "POSITION": 1
          },
          "indices": 0,
          "material": 0
        }
      ]
    },
    {
      "primitives": [
        {
          "attributes": {
            "POSITION": 3
          },
          "indices": 2,
          "material": 1
        }
      ]
    },
    {
      "primitives": [
        {
          "attributes": {
            "POSITION": 5
          },
          "indices": 4,
          "material": 2
        }
      ]
    },
    {
      "primitives": [
        {
          "attributes": {
            "POSITION": 7
          },
          "indices": 6,
          "material": 3
        }
      ]
    },
    {
      "primitives": [
        {
          "attributes": {
            "POSITION": 9
          },
          "indices": 8,
          "material": 0
        }
      ]
    },
    {
      "primitives": [
        {
          "attributes": {
            "POSITION": 11
          },
          "indices": 10,
          "material": 0
        }
      ]
    },
    {
      "primitives": [
        {
          "attributes": {
            "POSITION": 13
          },
          "indices": 12,
          "material": 0
        }
      ]
    },
    {
      "primitives": [
        {
          "attributes": {
            "POSITION": 15
          },
          "indices": 14,
          "material": 4
        }
      ]
    },
    {
      "primitives": [
        {
          "attributes": {
            "POSITION": 17
          },
          "indices": 16,
          "material": 5
        }
      ]
    },
    {
      "primitives": [
        {
          "attributes": {
            "POSITION": 19
          },
          "indices": 18,
          "material": 6
        },
        {
          "attributes": {
            "POSITION": 21
          },
          "indices": 20,
          "material": 1
        },
        {
          "attributes": {
            "POSITION": 23
          },
          "indices": 22,
          "material": 7
        }
      ]
    },
    {
      "primitives": [
        {
          "attributes": {
            "POSITION": 25
          },
          "indices": 24,
          "material": 8
        }
      ]
    },
    {
      "primitives": [
        {
          "attributes": {
            "POSITION": 27
          },
          "indices": 26,
          "material": 9
        }
      ]
    },
    {
      "primitives": [
        {
          "attributes": {
            "POSITION": 29
          },
          "indices": 28,
          "material": 9
        }
      ]
    },
    {
      "primitives": [
        {
          "attributes": {
            "POSITION": 31
          },
          "indices": 30,
          "material": 6
        },
        {
          "attributes": {
            "POSITION": 33
          },
          "indices": 32,
          "material": 1
        },
        {
          "attributes": {
            "POSITION": 35
          },
          "indices": 34,
          "material": 7
        }
      ]
    }
  ],
  "nodes": [
    {
      "matrix": [
        1.0,
        0.0,
        0.0,
        0.0,
        0.0,
        1.0,
        0.0,
        0.0,
        0.0,
        0.0,
        1.0,
        0.0,
        120.0,
        0.0,
        30.0,
        1.0
      ],
      "mesh": 0,
      "name": "[6718552]47_Dakbedekking"
    },
    {
      "matrix": [
        1.0,
        0.0,
        0.0,
        0.0,
        0.0,
        1.0,
        0.0,
        0.0,
        0.0,
        0.0,
        1.0,
        0.0,
        120.0,
        0.0,
        30.0,
        1.0
      ],
      "mesh": 1,
      "name": "[6718562]Roofs 9"
    },
    {
      "matrix": [
        1.0,
        0.0,
        0.0,
        0.0,
        0.0,
        1.0,
        0.0,
        0.0,
        0.0,
        0.0,
        1.0,
        0.0,
        120.0,
        0.0,
        30.0,
        1.0
      ],
      "mesh": 2,
      "name": "[6718577]27_Underlayment"
    },
    {
      "matrix": [
        1.0,
        0.0,
        0.0,
        0.0,
        0.0,
        1.0,
        0.0,
        0.0,
        0.0,
        0.0,
        1.0,
        0.0,
        120.0,
        0.0,
        30.0,
        1.0
      ],
      "mesh": 3,
      "name": "[6718582]Roofs 7"
    },
    {
      "matrix": [
        1.0,
        0.0,
        0.0,
        0.0,
        0.0,
        1.0,
        0.0,
        0.0,
        0.0,
        0.0,
        1.0,
        0.0,
        120.0,
        0.0,
        30.0,
        1.0
      ],
      "mesh": 4,
      "name": "[6718583]AL_47_Dakbedekking"
    },
    {
      "matrix": [
        1.0,
        0.0,
        0.0,
        0.0,
        0.0,
        1.0,
        0.0,
        0.0,
        0.0,
        0.0,
        1.0,
        0.0,
        120.0,
        0.0,
        30.0,
        1.0
      ],
      "mesh": 5,
      "name": "[6718594]47_Dakbedekking"
    },
    {
      "matrix": [
        1.0,
        0.0,
        0.0,
        0.0,
        0.0,
        1.0,
        0.0,
        0.0,
        0.0,
        0.0,
        1.0,
        0.0,
        120.0,
        0.0,
        30.0,
        1.0
      ],
      "mesh": 6,
      "name": "[6718601]AL_47_Dakbedekking"
    },
    {
      "matrix": [
        1.0,
        0.0,
        0.0,
        0.0,
        0.0,
        1.0,
        0.0,
        0.0,
        0.0,
        0.0,
        1.0,
        0.0,
        120.0,
        0.0,
        30.0,
        1.0
      ],
      "mesh": 7,
      "name": "[6718623]Regelwerk 44x70mm"
    },
    {
      "matrix": [
        1.0,
        0.0,
        0.0,
        0.0,
        0.0,
        1.0,
        0.0,
        0.0,
        0.0,
        0.0,
        1.0,
        0.0,
        120.0,
        0.0,
        30.0,
        1.0
      ],
      "mesh": 8,
      "name": "[6718633]Regelwerk 44x70 tpv afdekker"
    },
    {
      "matrix": [
        1.0,
        0.0,
        0.0,
        0.0,
        0.0,
        1.0,
        0.0,
        0.0,
        0.0,
        0.0,
        1.0,
        0.0,
        120.0,
        0.0,
        30.0,
        1.0
      ],
      "mesh": 9,
      "name": "[6718649]21_HSB rekje dakopstand uitbouw"
    },
    {
      "matrix": [
        1.0,
        0.0,
        0.0,
        0.0,
        0.0,
        1.0,
        0.0,
        0.0,
        0.0,
        0.0,
        1.0,
        0.0,
        120.0,
        0.0,
        30.0,
        1.0
      ],
      "mesh": 10,
      "name": "[6718673]Beplating uitbouw"
    },
    {
      "matrix": [
        1.0,
        0.0,
        0.0,
        0.0,
        0.0,
        1.0,
        0.0,
        0.0,
        0.0,
        0.0,
        1.0,
        0.0,
        120.0,
        0.0,
        30.0,
        1.0
      ],
      "mesh": 11,
      "name": "[6718689]21_Metselwerk Sonsbeek 100mm, Aberson 48N13"
    },
    {
      "matrix": [
        1.0,
        0.0,
        0.0,
        0.0,
        0.0,
        1.0,
        0.0,
        0.0,
        0.0,
        0.0,
        1.0,
        0.0,
        120.0,
        0.0,
        30.0,
        1.0
      ],
      "mesh": 12,
      "name": "[6718690]21_Metselwerk Sonsbeek 100mm, Aberson 48N13"
    },
    {
      "matrix": [
        1.0,
        0.0,
        0.0,
        0.0,
        0.0,
        1.0,
        0.0,
        0.0,
        0.0,
        0.0,
        1.0,
        0.0,
        120.0,
        0.0,
        30.0,
        1.0
      ],
      "mesh": 13,
      "name": "[6718711]21_HSB rekje dakopstand uitbouw"
    }
  ],
  "scene": 0,
  "scenes": [
    {
      "nodes": [
        0,
        1,
        2,
        3,
        4,
        5,
        6,
        7,
        8,
        9,
        10,
        11,
        12,
        13
      ],
      "name": "Cell"
    }
  ]
}