{
  "accessors": [
    {
      "bufferView": 0,
      "componentType": 5121,
      "count": 192,
      "type": "SCALAR",
      "max": [
        31.0
      ],
      "min": [
        0.0
      ]
    },
    {
      "bufferView": 1,
      "componentType": 5126,
      "count": 32,
      "type": "VEC3",
      "max": [
        -39.335,
        5.45700026,
        -150.0
      ],
      "min": [
        -39.425,
        2.85499978,
        -159.0
      ]
    },
    {
      "bufferView": 2,
      "componentType": 5121,
      "count": 96,
      "type": "SCALAR",
      "max": [
        15.0
      ],
      "min": [
        0.0
      ]
    },
    {
      "bufferView": 3,
      "componentType": 5126,
      "count": 16,
      "type": "VEC3",
      "max": [
        -39.204,
        5.68,
        -150.0
      ],
      "min": [
        -39.335,
        2.84,
        -159.0
      ]
    },
    {
      "bufferView": 4,
      "componentType": 5121,
      "count": 654,
      "type": "SCALAR",
      "max": [
        189.0
      ],
      "min": [
        0.0
      ]
    },
    {
      "bufferView": 5,
      "componentType": 5126,
      "count": 190,
      "type": "VEC3",
      "max": [
        1.0165,
        0.113,
        0.008
      ],
      "min": [
        -1.0165,
        -0.003,
        -0.082
      ]
    },
    {
      "bufferView": 6,
      "componentType": 5121,
      "count": 300,
      "type": "SCALAR",
      "max": [
        55.0
      ],
      "min": [
        0.0
      ]
    },
    {
      "bufferView": 7,
      "componentType": 5126,
      "count": 56,
      "type": "VEC3",
      "max": [
        0.879500031,
        -0.00500000035,
        4.03399446E-24
      ],
      "min": [
        -0.879500031,
        -0.07165077,
        -0.164999992
      ]
    },
    {
      "bufferView": 8,
      "componentType": 5121,
      "count": 132,
      "type": "SCALAR",
      "max": [
        30.0
      ],
      "min": [
        0.0
      ]
    },
    {
      "bufferView": 9,
      "componentType": 5126,
      "count": 31,
      "type": "VEC3",
      "max": [
        0.8905,
        0.0200000014,
        0.135
      ],
      "min": [
        -0.8905,
        -3.806955E-17,
        -0.085
      ]
    },
    {
      "bufferView": 10,
      "componentType": 5121,
      "count": 36,
      "type": "SCALAR",
      "max": [
        7.0
      ],
      "min": [
        0.0
      ]
    },
    {
      "bufferView": 11,
      "componentType": 5126,
      "count": 8,
      "type": "VEC3",
      "max": [
        -39.204,
        5.8,
        -149.869
      ],
      "min": [
        -39.3000031,
        2.9,
        -150.0
      ]
    },
    {
      "bufferView": 12,
      "componentType": 5121,
      "count": 36,
      "type": "SCALAR",
      "max": [
        7.0
      ],
      "min": [
        0.0
      ]
    },
    {
      "bufferView": 13,
      "componentType": 5126,
      "count": 8,
      "type": "VEC3",
      "max": [
        -39.204,
        5.8,
        -159.0
      ],
      "min": [
        -39.3000031,
        2.9,
        -159.131
      ]
    },
    {
      "bufferView": 14,
      "componentType": 5121,
      "count": 96,
      "type": "SCALAR",
      "max": [
        15.0
      ],
      "min": [
        0.0
      ]
    },
    {
      "bufferView": 15,
      "componentType": 5126,
      "count": 16,
      "type": "VEC3",
      "max": [
        -39.0650024,
        5.77499962,
        -149.83
      ],
      "min": [
        -39.165,
        2.84,
        -159.17
      ]
    },
    {
      "bufferView": 16,
      "componentType": 5121,
      "count": 48,
      "type": "SCALAR",
      "max": [
        9.0
      ],
      "min": [
        0.0
      ]
    },
    {
      "bufferView": 17,
      "componentType": 5126,
      "count": 10,
      "type": "VEC3",
      "max": [
        -39.0650024,
        5.77499962,
        -159.17
      ],
      "min": [
        -39.2695,
        2.84,
        -159.27
      ]
    },
    {
      "bufferView": 18,
      "componentType": 5121,
      "count": 48,
      "type": "SCALAR",
      "max": [
        9.0
      ],
      "min": [
        0.0
      ]
    },
    {
      "bufferView": 19,
      "componentType": 5126,
      "count": 10,
      "type": "VEC3",
      "max": [
        -39.0650024,
        5.77499962,
        -149.73
      ],
      "min": [
        -39.3000031,
        2.84,
        -149.83
      ]
    },
    {
      "bufferView": 20,
      "componentType": 5121,
      "count": 36,
      "type": "SCALAR",
      "max": [
        7.0
      ],
      "min": [
        0.0
      ]
    },
    {
      "bufferView": 21,
      "componentType": 5126,
      "count": 8,
      "type": "VEC3",
      "max": [
        -39.0650024,
        5.466,
        -150.4125
      ],
      "min": [
        -39.165,
        5.293,
        -152.6055
      ]
    },
    {
      "bufferView": 22,
      "componentType": 5121,
      "count": 36,
      "type": "SCALAR",
      "max": [
        7.0
      ],
      "min": [
        0.0
      ]
    },
    {
      "bufferView": 23,
      "componentType": 5126,
      "count": 8,
      "type": "VEC3",
      "max": [
        -39.0650024,
        5.293,
        -150.4125
      ],
      "min": [
        -39.165,
        3.738,
        -150.6225
      ]
    },
    {
      "bufferView": 24,
      "componentType": 5121,
      "count": 36,
      "type": "SCALAR",
      "max": [
        7.0
      ],
      "min": [
        0.0
      ]
    },
    {
      "bufferView": 25,
      "componentType": 5126,
      "count": 8,
      "type": "VEC3",
      "max": [
        -39.0650024,
        5.293,
        -152.3955
      ],
      "min": [
        -39.165,
        3.738,
        -152.6055
      ]
    },
    {
      "bufferView": 26,
      "componentType": 5121,
      "count": 36,
      "type": "SCALAR",
      "max": [
        7.0
      ],
      "min": [
        0.0
      ]
    },
    {
      "bufferView": 27,
      "componentType": 5126,
      "count": 8,
      "type": "VEC3",
      "max": [
        -39.0650024,
        3.738,
        -150.4125
      ],
      "min": [
        -39.165,
        3.565,
        -152.6055
      ]
    }
  ],
  "asset": {
    "copyright": "2019 (c) Smart2IT B.V.",
    "generator": "Smart2IT Revit glTF Exporter v0.5",
    "version": "2.0"
  },
  "buffers": [
    {
      "uri": "01_003_010.bin",
      "byteLength": 6692
    }
  ],
  "bufferViews": [
    {
      "buffer": 0,
      "byteLength": 192,
      "target": 34963
    },
    {
      "buffer": 0,
      "byteOffset": 192,
      "byteLength": 384,
      "target": 34962
    },
    {
      "buffer": 0,
      "byteOffset": 576,
      "byteLength": 96,
      "target": 34963
    },
    {
      "buffer": 0,
      "byteOffset": 672,
      "byteLength": 192,
      "target": 34962
    },
    {
      "buffer": 0,
      "byteOffset": 864,
      "byteLength": 656,
      "target": 34963
    },
    {
      "buffer": 0,
      "byteOffset": 1520,
      "byteLength": 2280,
      "target": 34962
    },
    {
      "buffer": 0,
      "byteOffset": 3800,
      "byteLength": 300,
      "target": 34963
    },
    {
      "buffer": 0,
      "byteOffset": 4100,
      "byteLength": 672,
      "target": 34962
    },
    {
      "buffer": 0,
      "byteOffset": 4772,
      "byteLength": 132,
      "target": 34963
    },
    {
      "buffer": 0,
      "byteOffset": 4904,
      "byteLength": 372,
      "target": 34962
    },
    {
      "buffer": 0,
      "byteOffset": 5276,
      "byteLength": 36,
      "target": 34963
    },
    {
      "buffer": 0,
      "byteOffset": 5312,
      "byteLength": 96,
      "target": 34962
    },
    {
      "buffer": 0,
      "byteOffset": 5408,
      "byteLength": 36,
      "target": 34963
    },
    {
      "buffer": 0,
      "byteOffset": 5444,
      "byteLength": 96,
      "target": 34962
    },
    {
      "buffer": 0,
      "byteOffset": 5540,
      "byteLength": 96,
      "target": 34963
    },
    {
      "buffer": 0,
      "byteOffset": 5636,
      "byteLength": 192,
      "target": 34962
    },
    {
      "buffer": 0,
      "byteOffset": 5828,
      "byteLength": 48,
      "target": 34963
    },
    {
      "buffer": 0,
      "byteOffset": 5876,
      "byteLength": 120,
      "target": 34962
    },
    {
      "buffer": 0,
      "byteOffset": 5996,
      "byteLength": 48,
      "target": 34963
    },
    {
      "buffer": 0,
      "byteOffset": 6044,
      "byteLength": 120,
      "target": 34962
    },
    {
      "buffer": 0,
      "byteOffset": 6164,
      "byteLength": 36,
      "target": 34963
    },
    {
      "buffer": 0,
      "byteOffset": 6200,
      "byteLength": 96,
      "target": 34962
    },
    {
      "buffer": 0,
      "byteOffset": 6296,
      "byteLength": 36,
      "target": 34963
    },
    {
      "buffer": 0,
      "byteOffset": 6332,
      "byteLength": 96,
      "target": 34962
    },
    {
      "buffer": 0,
      "byteOffset": 6428,
      "byteLength": 36,
      "target": 34963
    },
    {
      "buffer": 0,
      "byteOffset": 6464,
      "byteLength": 96,
      "target": 34962
    },
    {
      "buffer": 0,
      "byteOffset": 6560,
      "byteLength": 36,
      "target": 34963
    },
    {
      "buffer": 0,
      "byteOffset": 6596,
      "byteLength": 96,
      "target": 34962
    }
  ],
  "materials": [
    {
      "name": "f2_beton",
      "pbrMetallicRoughness": {
        "baseColorFactor": [
          0.7490196,
          0.698039234,
          0.6784314,
          1.0
        ],
        "metallicFactor": 0.0
      }
    },
    {
      "name": "m1_isolatie",
      "pbrMetallicRoughness": {
        "baseColorFactor": [
          0.768627465,
          0.9882353,
          0.619607866,
          1.0
        ],
        "metallicFactor": 0.0
      }
    },
    {
      "name": "v2_RAL 9001",
      "pbrMetallicRoughness": {
        "baseColorFactor": [
          0.980392158,
          0.956862748,
          0.8901961,
          1.0
        ],
        "metallicFactor": 0.0
      }
    },
    {
      "name": "n6_kunststof_RAL 9001",
      "pbrMetallicRoughness": {
        "baseColorFactor": [
          0.980392158,
          0.956862748,
          0.8901961,
          1.0
        ],
        "metallicFactor": 0.0
      }
    },
    {
      "name": "e2_vensterbank",
      "pbrMetallicRoughness": {
        "baseColorFactor": [
          0.9137255,
          0.8784314,
          0.8235294,
          1.0
        ],
        "metallicFactor": 0.0
      }
    },
    {
      "name": "g2_baksteen_Sonsbeek",
      "pbrMetallicRoughness": {
        "baseColorFactor": [
          0.521568656,
          0.435294122,
          0.372549027,
          1.0
        ],
        "metallicFactor": 0.0
      }
    },
    {
      "name": "g2_baksteen_Wit HV_rollaag",
      "pbrMetallicRoughness": {
        "baseColorFactor": [
          0.8980392,
          0.8627451,
          0.8039216,
          1.0
        ],
        "metallicFactor": 0.0
      }
    },
    {
      "name": "g2_baksteen_Wit HV",
      "pbrMetallicRoughness": {
        "baseColorFactor": [
          0.8980392,
          0.8627451,
          0.8039216,
          1.0
        ],
        "metallicFactor": 0.0
      }
    }
  ],
  "meshes": [
    {
      "primitives": [
        {
          "attributes": {
            "POSITION": 1
          },
          "indices": 0,
          "material": 0
        }
      ]
    },
    {
      "primitives": [
        {
          "attributes": {
            "POSITION": 3
          },
          "indices": 2,
          "material": 1
        }
      ]
    },
    {
      "primitives": [
        {
          "attributes": {
            "POSITION": 5
          },
          "indices": 4,
          "material": 2
        }
      ]
    },
    {
      "primitives": [
        {
          "attributes": {
            "POSITION": 7
          },
          "indices": 6,
          "material": 3
        }
      ]
    },
    {
      "primitives": [
        {
          "attributes": {
            "POSITION": 9
          },
          "indices": 8,
          "material": 4
        }
      ]
    },
    {
      "primitives": [
        {
          "attributes": {
            "POSITION": 11
          },
          "indices": 10,
          "material": 1
        }
      ]
    },
    {
      "primitives": [
        {
          "attributes": {
            "POSITION": 13
          },
          "indices": 12,
          "material": 1
        }
      ]
    },
    {
      "primitives": [
        {
          "attributes": {
            "POSITION": 15
          },
          "indices": 14,
          "material": 5
        }
      ]
    },
    {
      "primitives": [
        {
          "attributes": {
            "POSITION": 17
          },
          "indices": 16,
          "material": 5
        }
      ]
    },
    {
      "primitives": [
        {
          "attributes": {
            "POSITION": 19
          },
          "indices": 18,
          "material": 5
        }
      ]
    },
    {
      "primitives": [
        {
          "attributes": {
            "POSITION": 21
          },
          "indices": 20,
          "material": 6
        }
      ]
    },
    {
      "primitives": [
        {
          "attributes": {
            "POSITION": 23
          },
          "indices": 22,
          "material": 7
        }
      ]
    },
    {
      "primitives": [
        {
          "attributes": {
            "POSITION": 25
          },
          "indices": 24,
          "material": 7
        }
      ]
    },
    {
      "primitives": [
        {
          "attributes": {
            "POSITION": 27
          },
          "indices": 26,
          "material": 6
        }
      ]
    }
  ],
  "nodes": [
    {
      "matrix": [
        1.0,
        0.0,
        0.0,
        0.0,
        0.0,
        1.0,
        0.0,
        0.0,
        0.0,
        0.0,
        1.0,
        0.0,
        45.0,
        0.0,
        150.0,
        1.0
      ],
      "mesh": 0,
      "name": "[8680057]21_prefab betonwand 90mm"
    },
    {
      "matrix": [
        1.0,
        0.0,
        0.0,
        0.0,
        0.0,
        1.0,
        0.0,
        0.0,
        0.0,
        0.0,
        1.0,
        0.0,
        45.0,
        0.0,
        150.0,
        1.0
      ],
      "mesh": 1,
      "name": "[8680059]21_isolatie 131mm"
    },
    {
      "matrix": [
        1.925097E-15,
        0.0,
        1.0,
        0.0,
        0.0,
        1.0,
        0.0,
        0.0,
        -1.0,
        0.0,
        1.925097E-15,
        0.0,
        5.835,
        5.293,
        -1.508,
        1.0
      ],
      "mesh": 2,
      "name": "[8680061]Merk B_L18 90x116x3mm (RAL 9001)"
    },
    {
      "matrix": [
        1.925097E-15,
        0.0,
        1.0,
        0.0,
        0.0,
        1.0,
        0.0,
        0.0,
        -1.0,
        0.0,
        1.925097E-15,
        0.0,
        5.815,
        3.786,
        -1.508,
        1.0
      ],
      "mesh": 3,
      "name": "[8680062]Merk B_Waterslag"
    },
    {
      "matrix": [
        1.925097E-15,
        0.0,
        1.0,
        0.0,
        0.0,
        1.0,
        0.0,
        0.0,
        -1.0,
        0.0,
        1.925097E-15,
        0.0,
        5.665,
        3.803,
        -1.508,
        1.0
      ],
      "mesh": 4,
      "name": "[8680063]Merk B_Ventserbank"
    },
    {
      "matrix": [
        1.0,
        0.0,
        0.0,
        0.0,
        0.0,
        1.0,
        0.0,
        0.0,
        0.0,
        0.0,
        1.0,
        0.0,
        45.0,
        0.0,
        150.0,
        1.0
      ],
      "mesh": 5,
      "name": "[8680064]21_isolatie 131mm"
    },
    {
      "matrix": [
        1.0,
        0.0,
        0.0,
        0.0,
        0.0,
        1.0,
        0.0,
        0.0,
        0.0,
        0.0,
        1.0,
        0.0,
        45.0,
        0.0,
        150.0,
        1.0
      ],
      "mesh": 6,
      "name": "[8680065]21_isolatie 131mm"
    },
    {
      "matrix": [
        1.0,
        0.0,
        0.0,
        0.0,
        0.0,
        1.0,
        0.0,
        0.0,
        0.0,
        0.0,
        1.0,
        0.0,
        45.0,
        0.0,
        150.0,
        1.0
      ],
      "mesh": 7,
      "name": "[8680066]21_Metselwerk Sonsbeek 100mm, Aberson 48N13"
    },
    {
      "matrix": [
        1.0,
        0.0,
        0.0,
        0.0,
        0.0,
        1.0,
        0.0,
        0.0,
        0.0,
        0.0,
        1.0,
        0.0,
        45.0,
        0.0,
        150.0,
        1.0
      ],
      "mesh": 8,
      "name": "[8680067]21_Metselwerk Sonsbeek 100mm, Aberson 48N13"
    },
    {
      "matrix": [
        1.0,
        0.0,
        0.0,
        0.0,
        0.0,
        1.0,
        0.0,
        0.0,
        0.0,
        0.0,
        1.0,
        0.0,
        45.0,
        0.0,
        150.0,
        1.0
      ],
      "mesh": 9,
      "name": "[8680068]21_Metselwerk Sonsbeek 100mm, Aberson 48N13"
    },
    {
      "matrix": [
        1.0,
        0.0,
        0.0,
        0.0,
        0.0,
        1.0,
        0.0,
        0.0,
        0.0,
        0.0,
        1.0,
        0.0,
        45.0,
        0.0,
        150.0,
        1.0
      ],
      "mesh": 10,
      "name": "[8680704]21_Metselwerk Wit HV WF 100 mm, Aberson 35N17 Rollaag"
    },
    {
      "matrix": [
        1.0,
        0.0,
        0.0,
        0.0,
        0.0,
        1.0,
        0.0,
        0.0,
        0.0,
        0.0,
        1.0,
        0.0,
        45.0,
        0.0,
        150.0,
        1.0
      ],
      "mesh": 11,
      "name": "[8680706]21_Metselwerk Wit HV WF 100 mm, Aberson 35N17"
    },
    {
      "matrix": [
        1.0,
        0.0,
        0.0,
        0.0,
        0.0,
        1.0,
        0.0,
        0.0,
        0.0,
        0.0,
        1.0,
        0.0,
        45.0,
        0.0,
        150.0,
        1.0
      ],
      "mesh": 12,
      "name": "[8680707]21_Metselwerk Wit HV WF 100 mm, Aberson 35N17"
    },
    {
      "matrix": [
        1.0,
        0.0,
        0.0,
        0.0,
        0.0,
        1.0,
        0.0,
        0.0,
        0.0,
        0.0,
        1.0,
        0.0,
        45.0,
        0.0,
        150.0,
        1.0
      ],
      "mesh": 13,
      "name": "[8680861]21_Metselwerk Wit HV WF 100 mm, Aberson 35N17 Rollaag"
    }
  ],
  "scene": 0,
  "scenes": [
    {
      "nodes": [
        0,
        1,
        2,
        3,
        4,
        5,
        6,
        7,
        8,
        9,
        10,
        11,
        12,
        13
      ],
      "name": "Cell"
    }
  ]
}