{
  "accessors": [
    {
      "bufferView": 0,
      "componentType": 5121,
      "count": 144,
      "type": "SCALAR",
      "max": [
        23.0
      ],
      "min": [
        0.0
      ]
    },
    {
      "bufferView": 1,
      "componentType": 5126,
      "count": 24,
      "type": "VEC3",
      "max": [
        -9.3,
        5.77499962,
        -89.73
      ],
      "min": [
        -15.0,
        2.84,
        -89.8299942
      ]
    },
    {
      "bufferView": 2,
      "componentType": 5121,
      "count": 36,
      "type": "SCALAR",
      "max": [
        7.0
      ],
      "min": [
        0.0
      ]
    },
    {
      "bufferView": 3,
      "componentType": 5126,
      "count": 8,
      "type": "VEC3",
      "max": [
        -11.735,
        5.293,
        -89.715
      ],
      "min": [
        -11.945,
        2.84,
        -89.815
      ]
    },
    {
      "bufferView": 4,
      "componentType": 5121,
      "count": 36,
      "type": "SCALAR",
      "max": [
        7.0
      ],
      "min": [
        0.0
      ]
    },
    {
      "bufferView": 5,
      "componentType": 5126,
      "count": 8,
      "type": "VEC3",
      "max": [
        -9.752,
        5.293,
        -89.715
      ],
      "min": [
        -9.962,
        2.84,
        -89.815
      ]
    },
    {
      "bufferView": 6,
      "componentType": 5121,
      "count": 36,
      "type": "SCALAR",
      "max": [
        7.0
      ],
      "min": [
        0.0
      ]
    },
    {
      "bufferView": 7,
      "componentType": 5126,
      "count": 8,
      "type": "VEC3",
      "max": [
        -9.962,
        3.738,
        -89.73
      ],
      "min": [
        -11.735,
        2.84,
        -89.8299942
      ]
    },
    {
      "bufferView": 8,
      "componentType": 5121,
      "count": 36,
      "type": "SCALAR",
      "max": [
        7.0
      ],
      "min": [
        0.0
      ]
    },
    {
      "bufferView": 9,
      "componentType": 5126,
      "count": 8,
      "type": "VEC3",
      "max": [
        -9.752,
        5.466,
        -89.715
      ],
      "min": [
        -11.945,
        5.293,
        -89.815
      ]
    },
    {
      "bufferView": 10,
      "componentType": 5121,
      "count": 348,
      "type": "SCALAR",
      "max": [
        55.0
      ],
      "min": [
        0.0
      ]
    },
    {
      "bufferView": 11,
      "componentType": 5126,
      "count": 56,
      "type": "VEC3",
      "max": [
        -9.425,
        5.45700026,
        -90.00001
      ],
      "min": [
        -14.875,
        2.85499978,
        -90.09
      ]
    },
    {
      "bufferView": 12,
      "componentType": 5121,
      "count": 156,
      "type": "SCALAR",
      "max": [
        23.0
      ],
      "min": [
        0.0
      ]
    },
    {
      "bufferView": 13,
      "componentType": 5126,
      "count": 24,
      "type": "VEC3",
      "max": [
        -9.3,
        5.46,
        -89.8689957
      ],
      "min": [
        -15.0,
        2.84,
        -90.00001
      ]
    },
    {
      "bufferView": 14,
      "componentType": 5121,
      "count": 654,
      "type": "SCALAR",
      "max": [
        189.0
      ],
      "min": [
        0.0
      ]
    },
    {
      "bufferView": 15,
      "componentType": 5126,
      "count": 190,
      "type": "VEC3",
      "max": [
        1.0165,
        0.113,
        0.008
      ],
      "min": [
        -1.0165,
        -0.003,
        -0.082
      ]
    },
    {
      "bufferView": 16,
      "componentType": 5121,
      "count": 447,
      "type": "SCALAR",
      "max": [
        120.0
      ],
      "min": [
        0.0
      ]
    },
    {
      "bufferView": 17,
      "componentType": 5126,
      "count": 121,
      "type": "VEC3",
      "max": [
        0.576000035,
        0.0870000049,
        0.008
      ],
      "min": [
        -0.576000035,
        -0.003,
        -0.082
      ]
    },
    {
      "bufferView": 18,
      "componentType": 5121,
      "count": 300,
      "type": "SCALAR",
      "max": [
        55.0
      ],
      "min": [
        0.0
      ]
    },
    {
      "bufferView": 19,
      "componentType": 5126,
      "count": 56,
      "type": "VEC3",
      "max": [
        0.879500031,
        -0.00500000035,
        4.03399446E-24
      ],
      "min": [
        -0.879500031,
        -0.07165077,
        -0.164999992
      ]
    },
    {
      "bufferView": 20,
      "componentType": 5121,
      "count": 132,
      "type": "SCALAR",
      "max": [
        30.0
      ],
      "min": [
        0.0
      ]
    },
    {
      "bufferView": 21,
      "componentType": 5126,
      "count": 31,
      "type": "VEC3",
      "max": [
        0.8905,
        0.0200000014,
        0.135
      ],
      "min": [
        -0.8905,
        -3.806955E-17,
        -0.085
      ]
    },
    {
      "bufferView": 22,
      "componentType": 5121,
      "count": 300,
      "type": "SCALAR",
      "max": [
        55.0
      ],
      "min": [
        0.0
      ]
    },
    {
      "bufferView": 23,
      "componentType": 5126,
      "count": 56,
      "type": "VEC3",
      "max": [
        0.438999981,
        -0.00500000035,
        4.03399446E-24
      ],
      "min": [
        -0.438999981,
        -0.07165077,
        -0.164999992
      ]
    },
    {
      "bufferView": 24,
      "componentType": 5123,
      "count": 7338,
      "type": "SCALAR",
      "max": [
        2343.0
      ],
      "min": [
        0.0
      ]
    },
    {
      "bufferView": 25,
      "componentType": 5126,
      "count": 2344,
      "type": "VEC3",
      "max": [
        0.4787003,
        1.458,
        0.6
      ],
      "min": [
        -0.389299661,
        -0.0180000011,
        0.315300018
      ]
    }
  ],
  "asset": {
    "copyright": "2019 (c) Smart2IT B.V.",
    "generator": "Smart2IT Revit glTF Exporter v0.5",
    "version": "2.0"
  },
  "buffers": [
    {
      "uri": "01_001_006.bin",
      "byteLength": 52512
    }
  ],
  "bufferViews": [
    {
      "buffer": 0,
      "byteLength": 144,
      "target": 34963
    },
    {
      "buffer": 0,
      "byteOffset": 144,
      "byteLength": 288,
      "target": 34962
    },
    {
      "buffer": 0,
      "byteOffset": 432,
      "byteLength": 36,
      "target": 34963
    },
    {
      "buffer": 0,
      "byteOffset": 468,
      "byteLength": 96,
      "target": 34962
    },
    {
      "buffer": 0,
      "byteOffset": 564,
      "byteLength": 36,
      "target": 34963
    },
    {
      "buffer": 0,
      "byteOffset": 600,
      "byteLength": 96,
      "target": 34962
    },
    {
      "buffer": 0,
      "byteOffset": 696,
      "byteLength": 36,
      "target": 34963
    },
    {
      "buffer": 0,
      "byteOffset": 732,
      "byteLength": 96,
      "target": 34962
    },
    {
      "buffer": 0,
      "byteOffset": 828,
      "byteLength": 36,
      "target": 34963
    },
    {
      "buffer": 0,
      "byteOffset": 864,
      "byteLength": 96,
      "target": 34962
    },
    {
      "buffer": 0,
      "byteOffset": 960,
      "byteLength": 348,
      "target": 34963
    },
    {
      "buffer": 0,
      "byteOffset": 1308,
      "byteLength": 672,
      "target": 34962
    },
    {
      "buffer": 0,
      "byteOffset": 1980,
      "byteLength": 156,
      "target": 34963
    },
    {
      "buffer": 0,
      "byteOffset": 2136,
      "byteLength": 288,
      "target": 34962
    },
    {
      "buffer": 0,
      "byteOffset": 2424,
      "byteLength": 656,
      "target": 34963
    },
    {
      "buffer": 0,
      "byteOffset": 3080,
      "byteLength": 2280,
      "target": 34962
    },
    {
      "buffer": 0,
      "byteOffset": 5360,
      "byteLength": 448,
      "target": 34963
    },
    {
      "buffer": 0,
      "byteOffset": 5808,
      "byteLength": 1452,
      "target": 34962
    },
    {
      "buffer": 0,
      "byteOffset": 7260,
      "byteLength": 300,
      "target": 34963
    },
    {
      "buffer": 0,
      "byteOffset": 7560,
      "byteLength": 672,
      "target": 34962
    },
    {
      "buffer": 0,
      "byteOffset": 8232,
      "byteLength": 132,
      "target": 34963
    },
    {
      "buffer": 0,
      "byteOffset": 8364,
      "byteLength": 372,
      "target": 34962
    },
    {
      "buffer": 0,
      "byteOffset": 8736,
      "byteLength": 300,
      "target": 34963
    },
    {
      "buffer": 0,
      "byteOffset": 9036,
      "byteLength": 672,
      "target": 34962
    },
    {
      "buffer": 0,
      "byteOffset": 9708,
      "byteLength": 14676,
      "target": 34963
    },
    {
      "buffer": 0,
      "byteOffset": 24384,
      "byteLength": 28128,
      "target": 34962
    }
  ],
  "materials": [
    {
      "name": "g2_baksteen_Sonsbeek",
      "pbrMetallicRoughness": {
        "baseColorFactor": [
          0.521568656,
          0.435294122,
          0.372549027,
          1.0
        ],
        "metallicFactor": 0.0
      }
    },
    {
      "name": "g2_baksteen_Wit HV",
      "pbrMetallicRoughness": {
        "baseColorFactor": [
          0.8980392,
          0.8627451,
          0.8039216,
          1.0
        ],
        "metallicFactor": 0.0
      }
    },
    {
      "name": "g2_baksteen_Wit HV_rollaag",
      "pbrMetallicRoughness": {
        "baseColorFactor": [
          0.8980392,
          0.8627451,
          0.8039216,
          1.0
        ],
        "metallicFactor": 0.0
      }
    },
    {
      "name": "f2_beton",
      "pbrMetallicRoughness": {
        "baseColorFactor": [
          0.7490196,
          0.698039234,
          0.6784314,
          1.0
        ],
        "metallicFactor": 0.0
      }
    },
    {
      "name": "m1_isolatie",
      "pbrMetallicRoughness": {
        "baseColorFactor": [
          0.768627465,
          0.9882353,
          0.619607866,
          1.0
        ],
        "metallicFactor": 0.0
      }
    },
    {
      "name": "v2_RAL 7016",
      "pbrMetallicRoughness": {
        "baseColorFactor": [
          0.160784319,
          0.192156866,
          0.2,
          1.0
        ],
        "metallicFactor": 0.0
      }
    },
    {
      "name": "n6_kunststof_RAL 9001",
      "pbrMetallicRoughness": {
        "baseColorFactor": [
          0.980392158,
          0.956862748,
          0.8901961,
          1.0
        ],
        "metallicFactor": 0.0
      }
    },
    {
      "name": "e2_vensterbank",
      "pbrMetallicRoughness": {
        "baseColorFactor": [
          0.9137255,
          0.8784314,
          0.8235294,
          1.0
        ],
        "metallicFactor": 0.0
      }
    },
    {
      "name": "n6_kunststof_RAL 9010",
      "pbrMetallicRoughness": {
        "metallicFactor": 0.0
      }
    }
  ],
  "meshes": [
    {
      "primitives": [
        {
          "attributes": {
            "POSITION": 1
          },
          "indices": 0,
          "material": 0
        }
      ]
    },
    {
      "primitives": [
        {
          "attributes": {
            "POSITION": 3
          },
          "indices": 2,
          "material": 1
        }
      ]
    },
    {
      "primitives": [
        {
          "attributes": {
            "POSITION": 5
          },
          "indices": 4,
          "material": 1
        }
      ]
    },
    {
      "primitives": [
        {
          "attributes": {
            "POSITION": 7
          },
          "indices": 6,
          "material": 0
        }
      ]
    },
    {
      "primitives": [
        {
          "attributes": {
            "POSITION": 9
          },
          "indices": 8,
          "material": 2
        }
      ]
    },
    {
      "primitives": [
        {
          "attributes": {
            "POSITION": 11
          },
          "indices": 10,
          "material": 3
        }
      ]
    },
    {
      "primitives": [
        {
          "attributes": {
            "POSITION": 13
          },
          "indices": 12,
          "material": 4
        }
      ]
    },
    {
      "primitives": [
        {
          "attributes": {
            "POSITION": 15
          },
          "indices": 14,
          "material": 5
        }
      ]
    },
    {
      "primitives": [
        {
          "attributes": {
            "POSITION": 17
          },
          "indices": 16,
          "material": 5
        }
      ]
    },
    {
      "primitives": [
        {
          "attributes": {
            "POSITION": 19
          },
          "indices": 18,
          "material": 6
        }
      ]
    },
    {
      "primitives": [
        {
          "attributes": {
            "POSITION": 21
          },
          "indices": 20,
          "material": 7
        }
      ]
    },
    {
      "primitives": [
        {
          "attributes": {
            "POSITION": 23
          },
          "indices": 22,
          "material": 6
        }
      ]
    },
    {
      "primitives": [
        {
          "attributes": {
            "POSITION": 25
          },
          "indices": 24,
          "material": 8
        }
      ]
    }
  ],
  "nodes": [
    {
      "matrix": [
        1.0,
        0.0,
        0.0,
        0.0,
        0.0,
        1.0,
        0.0,
        0.0,
        0.0,
        0.0,
        1.0,
        0.0,
        15.0,
        0.0,
        90.0,
        1.0
      ],
      "mesh": 0,
      "name": "[8686509]21_Metselwerk Sonsbeek 100mm, Aberson 48N13"
    },
    {
      "matrix": [
        1.0,
        0.0,
        0.0,
        0.0,
        0.0,
        1.0,
        0.0,
        0.0,
        0.0,
        0.0,
        1.0,
        0.0,
        15.0,
        0.0,
        90.0,
        1.0
      ],
      "mesh": 1,
      "name": "[8686525]21_Metselwerk Wit HV WF 100mm, Aberson 35N17"
    },
    {
      "matrix": [
        1.0,
        0.0,
        0.0,
        0.0,
        0.0,
        1.0,
        0.0,
        0.0,
        0.0,
        0.0,
        1.0,
        0.0,
        15.0,
        0.0,
        90.0,
        1.0
      ],
      "mesh": 2,
      "name": "[8686526]21_Metselwerk Wit HV WF 100mm, Aberson 35N17"
    },
    {
      "matrix": [
        1.0,
        0.0,
        0.0,
        0.0,
        0.0,
        1.0,
        0.0,
        0.0,
        0.0,
        0.0,
        1.0,
        0.0,
        15.0,
        0.0,
        90.0,
        1.0
      ],
      "mesh": 3,
      "name": "[8686527]21_Metselwerk Sonsbeek 100 mm, Aberson 48N13"
    },
    {
      "matrix": [
        1.0,
        0.0,
        0.0,
        0.0,
        0.0,
        1.0,
        0.0,
        0.0,
        0.0,
        0.0,
        1.0,
        0.0,
        15.0,
        0.0,
        90.0,
        1.0
      ],
      "mesh": 4,
      "name": "[8686528]21_Metselwerk Wit HV WF 100mm, Aberson 35N17 Rollaag"
    },
    {
      "matrix": [
        1.0,
        0.0,
        0.0,
        0.0,
        0.0,
        1.0,
        0.0,
        0.0,
        0.0,
        0.0,
        1.0,
        0.0,
        15.0,
        0.0,
        90.0,
        1.0
      ],
      "mesh": 5,
      "name": "[8686625]21_prefab betonwand 90mm"
    },
    {
      "matrix": [
        1.0,
        0.0,
        0.0,
        0.0,
        0.0,
        1.0,
        0.0,
        0.0,
        0.0,
        0.0,
        1.0,
        0.0,
        15.0,
        0.0,
        90.0,
        1.0
      ],
      "mesh": 6,
      "name": "[8686628]21_isolatie 131mm"
    },
    {
      "matrix": [
        -1.0,
        0.0,
        -1.01420261E-14,
        0.0,
        0.0,
        1.0,
        0.0,
        0.0,
        1.01420261E-14,
        0.0,
        -1.0,
        0.0,
        4.1515,
        5.293,
        0.17,
        1.0
      ],
      "mesh": 7,
      "name": "[8686631]Merk B_L18 90x116x3mm"
    },
    {
      "matrix": [
        -1.0,
        0.0,
        -1.01420261E-14,
        0.0,
        0.0,
        1.0,
        0.0,
        0.0,
        1.01420261E-14,
        0.0,
        -1.0,
        0.0,
        1.763,
        5.293,
        0.17,
        1.0
      ],
      "mesh": 8,
      "name": "[8686632]Merk G_L6 90x90x3mm"
    },
    {
      "matrix": [
        -1.0,
        0.0,
        -1.01420261E-14,
        0.0,
        0.0,
        1.0,
        0.0,
        0.0,
        1.01420261E-14,
        0.0,
        -1.0,
        0.0,
        4.1515,
        3.786,
        0.15,
        1.0
      ],
      "mesh": 9,
      "name": "[8686633]Merk B_Waterslag"
    },
    {
      "matrix": [
        -1.0,
        0.0,
        -1.01420261E-14,
        0.0,
        0.0,
        1.0,
        0.0,
        0.0,
        1.01420261E-14,
        0.0,
        -1.0,
        0.0,
        4.1515,
        3.803,
        1.42108547E-13,
        1.0
      ],
      "mesh": 10,
      "name": "[8686634]Merk B_Ventserbank"
    },
    {
      "matrix": [
        -1.0,
        0.0,
        -1.01420261E-14,
        0.0,
        0.0,
        1.0,
        0.0,
        0.0,
        1.01420261E-14,
        0.0,
        -1.0,
        0.0,
        1.763,
        3.786,
        0.15,
        1.0
      ],
      "mesh": 11,
      "name": "[8686635]Merk G_Waterslag"
    },
    {
      "matrix": [
        1.0,
        0.0,
        0.0,
        0.0,
        0.0,
        1.0,
        0.0,
        0.0,
        0.0,
        0.0,
        1.0,
        0.0,
        1.71829963,
        3.813,
        -0.512,
        1.0
      ],
      "mesh": 12,
      "name": "[8843569]Dagkantafwerking_badkamer_1440x832"
    }
  ],
  "scene": 0,
  "scenes": [
    {
      "nodes": [
        0,
        1,
        2,
        3,
        4,
        5,
        6,
        7,
        8,
        9,
        10,
        11,
        12
      ],
      "name": "Cell"
    }
  ]
}