{
  "accessors": [
    {
      "bufferView": 0,
      "componentType": 5123,
      "count": 1791,
      "type": "SCALAR",
      "max": [
        320.0
      ],
      "min": [
        0.0
      ]
    },
    {
      "bufferView": 1,
      "componentType": 5126,
      "count": 321,
      "type": "VEC3",
      "max": [
        81.20442,
        5.85199976,
        75.53946
      ],
      "min": [
        80.7000046,
        5.76699972,
        74.969
      ]
    }
  ],
  "asset": {
    "copyright": "2019 (c) Smart2IT B.V.",
    "generator": "Smart2IT Revit glTF Exporter v0.5",
    "version": "2.0"
  },
  "buffers": [
    {
      "uri": "03_005_004.bin",
      "byteLength": 7436
    }
  ],
  "bufferViews": [
    {
      "buffer": 0,
      "byteLength": 3584,
      "target": 34963
    },
    {
      "buffer": 0,
      "byteOffset": 3584,
      "byteLength": 3852,
      "target": 34962
    }
  ],
  "materials": [
    {
      "name": "h7_zink",
      "pbrMetallicRoughness": {
        "baseColorFactor": [
          0.470588237,
          0.470588237,
          0.470588237,
          1.0
        ],
        "metallicFactor": 0.0
      }
    }
  ],
  "meshes": [
    {
      "primitives": [
        {
          "attributes": {
            "POSITION": 1
          },
          "indices": 0,
          "material": 0
        }
      ]
    }
  ],
  "nodes": [
    {
      "matrix": [
        1.0,
        0.0,
        0.0,
        0.0,
        0.0,
        1.0,
        0.0,
        0.0,
        0.0,
        0.0,
        1.0,
        0.0,
        -75.0,
        0.0,
        -75.0,
        1.0
      ],
      "mesh": 0,
      "name": "[8271598]52_Zinken bakgoot B44 met eindstuk"
    }
  ],
  "scene": 0,
  "scenes": [
    {
      "nodes": [
        0
      ],
      "name": "Cell"
    }
  ]
}