{
  "accessors": [
    {
      "bufferView": 0,
      "componentType": 5121,
      "count": 132,
      "type": "SCALAR",
      "max": [
        21.0
      ],
      "min": [
        0.0
      ]
    },
    {
      "bufferView": 1,
      "componentType": 5126,
      "count": 22,
      "type": "VEC3",
      "max": [
        35.7,
        9.135228,
        105.131
      ],
      "min": [
        30.0,
        5.46,
        105.0
      ]
    },
    {
      "bufferView": 2,
      "componentType": 5121,
      "count": 228,
      "type": "SCALAR",
      "max": [
        37.0
      ],
      "min": [
        0.0
      ]
    },
    {
      "bufferView": 3,
      "componentType": 5126,
      "count": 38,
      "type": "VEC3",
      "max": [
        35.575,
        9.124768,
        105.0
      ],
      "min": [
        30.125,
        5.695,
        104.909996
      ]
    },
    {
      "bufferView": 4,
      "componentType": 5121,
      "count": 447,
      "type": "SCALAR",
      "max": [
        120.0
      ],
      "min": [
        0.0
      ]
    },
    {
      "bufferView": 5,
      "componentType": 5126,
      "count": 121,
      "type": "VEC3",
      "max": [
        0.576000035,
        0.0870000049,
        0.008
      ],
      "min": [
        -0.576000035,
        -0.003,
        -0.082
      ]
    },
    {
      "bufferView": 6,
      "componentType": 5121,
      "count": 300,
      "type": "SCALAR",
      "max": [
        55.0
      ],
      "min": [
        0.0
      ]
    },
    {
      "bufferView": 7,
      "componentType": 5126,
      "count": 56,
      "type": "VEC3",
      "max": [
        0.438999981,
        -0.00500000035,
        4.03399446E-24
      ],
      "min": [
        -0.438999981,
        -0.07165077,
        -0.164999992
      ]
    },
    {
      "bufferView": 8,
      "componentType": 5121,
      "count": 132,
      "type": "SCALAR",
      "max": [
        29.0
      ],
      "min": [
        0.0
      ]
    },
    {
      "bufferView": 9,
      "componentType": 5126,
      "count": 30,
      "type": "VEC3",
      "max": [
        0.450000018,
        0.0200000014,
        0.135
      ],
      "min": [
        -0.450000018,
        -3.38395982E-17,
        -0.085
      ]
    },
    {
      "bufferView": 10,
      "componentType": 5121,
      "count": 24,
      "type": "SCALAR",
      "max": [
        9.0
      ],
      "min": [
        0.0
      ]
    },
    {
      "bufferView": 11,
      "componentType": 5126,
      "count": 10,
      "type": "VEC3",
      "max": [
        35.69998,
        9.670502,
        105.143
      ],
      "min": [
        30.0000172,
        6.08,
        105.143
      ]
    },
    {
      "bufferView": 12,
      "componentType": 5121,
      "count": 24,
      "type": "SCALAR",
      "max": [
        9.0
      ],
      "min": [
        0.0
      ]
    },
    {
      "bufferView": 13,
      "componentType": 5126,
      "count": 10,
      "type": "VEC3",
      "max": [
        35.69998,
        9.670502,
        105.061005
      ],
      "min": [
        30.0000172,
        6.08,
        105.061005
      ]
    },
    {
      "bufferView": 14,
      "componentType": 5121,
      "count": 60,
      "type": "SCALAR",
      "max": [
        19.0
      ],
      "min": [
        0.0
      ]
    },
    {
      "bufferView": 15,
      "componentType": 5126,
      "count": 20,
      "type": "VEC3",
      "max": [
        35.69998,
        9.670502,
        105.143
      ],
      "min": [
        30.0000172,
        6.08,
        105.061005
      ]
    },
    {
      "bufferView": 16,
      "componentType": 5121,
      "count": 72,
      "type": "SCALAR",
      "max": [
        15.0
      ],
      "min": [
        0.0
      ]
    },
    {
      "bufferView": 17,
      "componentType": 5126,
      "count": 16,
      "type": "VEC3",
      "max": [
        35.71,
        6.465,
        105.049995
      ],
      "min": [
        29.99,
        6.24199963,
        105.04
      ]
    },
    {
      "bufferView": 18,
      "componentType": 5121,
      "count": 252,
      "type": "SCALAR",
      "max": [
        37.0
      ],
      "min": [
        0.0
      ]
    },
    {
      "bufferView": 19,
      "componentType": 5126,
      "count": 38,
      "type": "VEC3",
      "max": [
        35.7,
        9.653068,
        105.270004
      ],
      "min": [
        30.0,
        5.77499962,
        105.17
      ]
    },
    {
      "bufferView": 20,
      "componentType": 5121,
      "count": 36,
      "type": "SCALAR",
      "max": [
        7.0
      ],
      "min": [
        0.0
      ]
    },
    {
      "bufferView": 21,
      "componentType": 5126,
      "count": 8,
      "type": "VEC3",
      "max": [
        33.396,
        8.245,
        105.29
      ],
      "min": [
        32.304,
        8.133,
        105.189995
      ]
    },
    {
      "bufferView": 22,
      "componentType": 5121,
      "count": 36,
      "type": "SCALAR",
      "max": [
        7.0
      ],
      "min": [
        0.0
      ]
    },
    {
      "bufferView": 23,
      "componentType": 5126,
      "count": 8,
      "type": "VEC3",
      "max": [
        32.404,
        8.133,
        105.29
      ],
      "min": [
        32.304,
        6.578,
        105.189995
      ]
    },
    {
      "bufferView": 24,
      "componentType": 5121,
      "count": 36,
      "type": "SCALAR",
      "max": [
        7.0
      ],
      "min": [
        0.0
      ]
    },
    {
      "bufferView": 25,
      "componentType": 5126,
      "count": 8,
      "type": "VEC3",
      "max": [
        33.396,
        8.133,
        105.29
      ],
      "min": [
        33.296,
        6.578,
        105.189995
      ]
    },
    {
      "bufferView": 26,
      "componentType": 5121,
      "count": 72,
      "type": "SCALAR",
      "max": [
        15.0
      ],
      "min": [
        0.0
      ]
    },
    {
      "bufferView": 27,
      "componentType": 5126,
      "count": 16,
      "type": "VEC3",
      "max": [
        32.955,
        9.231999,
        105.270004
      ],
      "min": [
        32.745,
        8.688,
        105.17
      ]
    },
    {
      "bufferView": 28,
      "componentType": 5121,
      "count": 36,
      "type": "SCALAR",
      "max": [
        7.0
      ],
      "min": [
        0.0
      ]
    },
    {
      "bufferView": 29,
      "componentType": 5126,
      "count": 8,
      "type": "VEC3",
      "max": [
        33.396,
        6.578,
        105.29
      ],
      "min": [
        32.304,
        6.466,
        105.189995
      ]
    },
    {
      "bufferView": 30,
      "componentType": 5121,
      "count": 636,
      "type": "SCALAR",
      "max": [
        115.0
      ],
      "min": [
        0.0
      ]
    },
    {
      "bufferView": 31,
      "componentType": 5126,
      "count": 116,
      "type": "VEC3",
      "max": [
        2.88940334,
        3.78526,
        0.03
      ],
      "min": [
        -2.886526,
        0.0457105,
        -0.245016545
      ]
    }
  ],
  "asset": {
    "copyright": "2019 (c) Smart2IT B.V.",
    "generator": "Smart2IT Revit glTF Exporter v0.5",
    "version": "2.0"
  },
  "buffers": [
    {
      "uri": "03_002_006.bin",
      "byteLength": 8824
    }
  ],
  "bufferViews": [
    {
      "buffer": 0,
      "byteLength": 132,
      "target": 34963
    },
    {
      "buffer": 0,
      "byteOffset": 132,
      "byteLength": 264,
      "target": 34962
    },
    {
      "buffer": 0,
      "byteOffset": 396,
      "byteLength": 228,
      "target": 34963
    },
    {
      "buffer": 0,
      "byteOffset": 624,
      "byteLength": 456,
      "target": 34962
    },
    {
      "buffer": 0,
      "byteOffset": 1080,
      "byteLength": 448,
      "target": 34963
    },
    {
      "buffer": 0,
      "byteOffset": 1528,
      "byteLength": 1452,
      "target": 34962
    },
    {
      "buffer": 0,
      "byteOffset": 2980,
      "byteLength": 300,
      "target": 34963
    },
    {
      "buffer": 0,
      "byteOffset": 3280,
      "byteLength": 672,
      "target": 34962
    },
    {
      "buffer": 0,
      "byteOffset": 3952,
      "byteLength": 132,
      "target": 34963
    },
    {
      "buffer": 0,
      "byteOffset": 4084,
      "byteLength": 360,
      "target": 34962
    },
    {
      "buffer": 0,
      "byteOffset": 4444,
      "byteLength": 24,
      "target": 34963
    },
    {
      "buffer": 0,
      "byteOffset": 4468,
      "byteLength": 120,
      "target": 34962
    },
    {
      "buffer": 0,
      "byteOffset": 4588,
      "byteLength": 24,
      "target": 34963
    },
    {
      "buffer": 0,
      "byteOffset": 4612,
      "byteLength": 120,
      "target": 34962
    },
    {
      "buffer": 0,
      "byteOffset": 4732,
      "byteLength": 60,
      "target": 34963
    },
    {
      "buffer": 0,
      "byteOffset": 4792,
      "byteLength": 240,
      "target": 34962
    },
    {
      "buffer": 0,
      "byteOffset": 5032,
      "byteLength": 72,
      "target": 34963
    },
    {
      "buffer": 0,
      "byteOffset": 5104,
      "byteLength": 192,
      "target": 34962
    },
    {
      "buffer": 0,
      "byteOffset": 5296,
      "byteLength": 252,
      "target": 34963
    },
    {
      "buffer": 0,
      "byteOffset": 5548,
      "byteLength": 456,
      "target": 34962
    },
    {
      "buffer": 0,
      "byteOffset": 6004,
      "byteLength": 36,
      "target": 34963
    },
    {
      "buffer": 0,
      "byteOffset": 6040,
      "byteLength": 96,
      "target": 34962
    },
    {
      "buffer": 0,
      "byteOffset": 6136,
      "byteLength": 36,
      "target": 34963
    },
    {
      "buffer": 0,
      "byteOffset": 6172,
      "byteLength": 96,
      "target": 34962
    },
    {
      "buffer": 0,
      "byteOffset": 6268,
      "byteLength": 36,
      "target": 34963
    },
    {
      "buffer": 0,
      "byteOffset": 6304,
      "byteLength": 96,
      "target": 34962
    },
    {
      "buffer": 0,
      "byteOffset": 6400,
      "byteLength": 72,
      "target": 34963
    },
    {
      "buffer": 0,
      "byteOffset": 6472,
      "byteLength": 192,
      "target": 34962
    },
    {
      "buffer": 0,
      "byteOffset": 6664,
      "byteLength": 36,
      "target": 34963
    },
    {
      "buffer": 0,
      "byteOffset": 6700,
      "byteLength": 96,
      "target": 34962
    },
    {
      "buffer": 0,
      "byteOffset": 6796,
      "byteLength": 636,
      "target": 34963
    },
    {
      "buffer": 0,
      "byteOffset": 7432,
      "byteLength": 1392,
      "target": 34962
    }
  ],
  "materials": [
    {
      "name": "m1_isolatie",
      "pbrMetallicRoughness": {
        "baseColorFactor": [
          0.768627465,
          0.9882353,
          0.619607866,
          1.0
        ],
        "metallicFactor": 0.0
      }
    },
    {
      "name": "f2_beton",
      "pbrMetallicRoughness": {
        "baseColorFactor": [
          0.7490196,
          0.698039234,
          0.6784314,
          1.0
        ],
        "metallicFactor": 0.0
      }
    },
    {
      "name": "v2_RAL 9001",
      "pbrMetallicRoughness": {
        "baseColorFactor": [
          0.980392158,
          0.956862748,
          0.8901961,
          1.0
        ],
        "metallicFactor": 0.0
      }
    },
    {
      "name": "n6_kunststof_RAL 9001",
      "pbrMetallicRoughness": {
        "baseColorFactor": [
          0.980392158,
          0.956862748,
          0.8901961,
          1.0
        ],
        "metallicFactor": 0.0
      }
    },
    {
      "name": "i3_loofhout (hardhout)",
      "pbrMetallicRoughness": {
        "baseColorFactor": [
          0.945098042,
          0.933333337,
          0.8862745,
          1.0
        ],
        "metallicFactor": 0.0
      }
    },
    {
      "name": "i4_multiplex",
      "pbrMetallicRoughness": {
        "baseColorFactor": [
          0.9019608,
          0.8352941,
          0.6745098,
          1.0
        ],
        "metallicFactor": 0.0
      }
    },
    {
      "name": "Walls material#7F7F7FFF",
      "pbrMetallicRoughness": {
        "baseColorFactor": [
          0.498039216,
          0.498039216,
          0.498039216,
          1.0
        ],
        "metallicFactor": 0.0
      }
    },
    {
      "name": "g2_baksteen_Sonsbeek",
      "pbrMetallicRoughness": {
        "baseColorFactor": [
          0.521568656,
          0.435294122,
          0.372549027,
          1.0
        ],
        "metallicFactor": 0.0
      }
    },
    {
      "name": "g2_baksteen_Wit HV_rollaag",
      "pbrMetallicRoughness": {
        "baseColorFactor": [
          0.8980392,
          0.8627451,
          0.8039216,
          1.0
        ],
        "metallicFactor": 0.0
      }
    },
    {
      "name": "g2_baksteen_Wit HV",
      "pbrMetallicRoughness": {
        "baseColorFactor": [
          0.8980392,
          0.8627451,
          0.8039216,
          1.0
        ],
        "metallicFactor": 0.0
      }
    },
    {
      "name": "h7_zink",
      "pbrMetallicRoughness": {
        "baseColorFactor": [
          0.470588237,
          0.470588237,
          0.470588237,
          1.0
        ],
        "metallicFactor": 0.0
      }
    }
  ],
  "meshes": [
    {
      "primitives": [
        {
          "attributes": {
            "POSITION": 1
          },
          "indices": 0,
          "material": 0
        }
      ]
    },
    {
      "primitives": [
        {
          "attributes": {
            "POSITION": 3
          },
          "indices": 2,
          "material": 1
        }
      ]
    },
    {
      "primitives": [
        {
          "attributes": {
            "POSITION": 5
          },
          "indices": 4,
          "material": 2
        }
      ]
    },
    {
      "primitives": [
        {
          "attributes": {
            "POSITION": 7
          },
          "indices": 6,
          "material": 3
        }
      ]
    },
    {
      "primitives": [
        {
          "attributes": {
            "POSITION": 9
          },
          "indices": 8,
          "material": 2
        }
      ]
    },
    {
      "primitives": [
        {
          "attributes": {
            "POSITION": 11
          },
          "indices": 10,
          "material": 4
        },
        {
          "attributes": {
            "POSITION": 13
          },
          "indices": 12,
          "material": 5
        },
        {
          "attributes": {
            "POSITION": 15
          },
          "indices": 14,
          "material": 6
        }
      ]
    },
    {
      "primitives": [
        {
          "attributes": {
            "POSITION": 17
          },
          "indices": 16,
          "material": 5
        }
      ]
    },
    {
      "primitives": [
        {
          "attributes": {
            "POSITION": 19
          },
          "indices": 18,
          "material": 7
        }
      ]
    },
    {
      "primitives": [
        {
          "attributes": {
            "POSITION": 21
          },
          "indices": 20,
          "material": 8
        }
      ]
    },
    {
      "primitives": [
        {
          "attributes": {
            "POSITION": 23
          },
          "indices": 22,
          "material": 9
        }
      ]
    },
    {
      "primitives": [
        {
          "attributes": {
            "POSITION": 25
          },
          "indices": 24,
          "material": 9
        }
      ]
    },
    {
      "primitives": [
        {
          "attributes": {
            "POSITION": 27
          },
          "indices": 26,
          "material": 9
        }
      ]
    },
    {
      "primitives": [
        {
          "attributes": {
            "POSITION": 29
          },
          "indices": 28,
          "material": 8
        }
      ]
    },
    {
      "primitives": [
        {
          "attributes": {
            "POSITION": 31
          },
          "indices": 30,
          "material": 10
        }
      ]
    }
  ],
  "nodes": [
    {
      "matrix": [
        1.0,
        0.0,
        0.0,
        0.0,
        0.0,
        1.0,
        0.0,
        0.0,
        0.0,
        0.0,
        1.0,
        0.0,
        -30.0,
        0.0,
        -105.0,
        1.0
      ],
      "mesh": 0,
      "name": "[8298542]21_isolatie 131mm"
    },
    {
      "matrix": [
        1.0,
        0.0,
        0.0,
        0.0,
        0.0,
        1.0,
        0.0,
        0.0,
        0.0,
        0.0,
        1.0,
        0.0,
        -30.0,
        0.0,
        -105.0,
        1.0
      ],
      "mesh": 1,
      "name": "[8298543]21_prefab betonwand 90mm"
    },
    {
      "matrix": [
        -1.0,
        0.0,
        -3.06421547E-17,
        0.0,
        0.0,
        1.0,
        0.0,
        0.0,
        3.06421547E-17,
        0.0,
        -1.0,
        0.0,
        2.85,
        8.133,
        0.17,
        1.0
      ],
      "mesh": 2,
      "name": "[8298574]Merk G_L6 90x90x3mm (RAL 9001)"
    },
    {
      "matrix": [
        -1.0,
        0.0,
        -3.06421547E-17,
        0.0,
        0.0,
        1.0,
        0.0,
        0.0,
        3.06421547E-17,
        0.0,
        -1.0,
        0.0,
        2.85,
        6.626,
        0.15,
        1.0
      ],
      "mesh": 3,
      "name": "[8298575]Merk G_Waterslag"
    },
    {
      "matrix": [
        -1.0,
        0.0,
        -3.06421547E-17,
        0.0,
        0.0,
        1.0,
        0.0,
        0.0,
        3.06421547E-17,
        0.0,
        -1.0,
        0.0,
        2.85,
        6.643,
        2.7000624E-13,
        1.0
      ],
      "mesh": 4,
      "name": "[8298576]Merk G_Ventserbank"
    },
    {
      "matrix": [
        1.0,
        0.0,
        0.0,
        0.0,
        0.0,
        1.0,
        0.0,
        0.0,
        0.0,
        0.0,
        1.0,
        0.0,
        -30.0,
        0.0,
        -105.0,
        1.0
      ],
      "mesh": 5,
      "name": "[8298705]27_Dakopstand HSB rekje met plaatmateriaal 80mm"
    },
    {
      "matrix": [
        1.0,
        0.0,
        0.0,
        0.0,
        0.0,
        1.0,
        0.0,
        0.0,
        0.0,
        0.0,
        1.0,
        0.0,
        -30.0,
        0.0,
        -105.0,
        1.0
      ],
      "mesh": 6,
      "name": "[8298714]27_Plaatmateriaal 10mm"
    },
    {
      "matrix": [
        1.0,
        0.0,
        0.0,
        0.0,
        0.0,
        1.0,
        0.0,
        0.0,
        0.0,
        0.0,
        1.0,
        0.0,
        -30.0,
        0.0,
        -105.0,
        1.0
      ],
      "mesh": 7,
      "name": "[8298742]21_Metselwerk Sonsbeek 100mm, Aberson 48N13"
    },
    {
      "matrix": [
        1.0,
        0.0,
        0.0,
        0.0,
        0.0,
        1.0,
        0.0,
        0.0,
        0.0,
        0.0,
        1.0,
        0.0,
        -30.0,
        0.0,
        -105.0,
        1.0
      ],
      "mesh": 8,
      "name": "[8298751]21_Metselwerk Wit HV WF 100mm, Aberson 35N17 Rollaag"
    },
    {
      "matrix": [
        1.0,
        0.0,
        0.0,
        0.0,
        0.0,
        1.0,
        0.0,
        0.0,
        0.0,
        0.0,
        1.0,
        0.0,
        -30.0,
        0.0,
        -105.0,
        1.0
      ],
      "mesh": 9,
      "name": "[8298752]21_Metselwerk Wit HV WF 100mm, Aberson 35N17"
    },
    {
      "matrix": [
        1.0,
        0.0,
        0.0,
        0.0,
        0.0,
        1.0,
        0.0,
        0.0,
        0.0,
        0.0,
        1.0,
        0.0,
        -30.0,
        0.0,
        -105.0,
        1.0
      ],
      "mesh": 10,
      "name": "[8298753]21_Metselwerk Wit HV WF 100mm, Aberson 35N17"
    },
    {
      "matrix": [
        1.0,
        0.0,
        0.0,
        0.0,
        0.0,
        1.0,
        0.0,
        0.0,
        0.0,
        0.0,
        1.0,
        0.0,
        -30.0,
        0.0,
        -105.0,
        1.0
      ],
      "mesh": 11,
      "name": "[8298764]21_Metselwerk Wit HV WF 100mm, Aberson 35N17"
    },
    {
      "matrix": [
        1.0,
        0.0,
        0.0,
        0.0,
        0.0,
        1.0,
        0.0,
        0.0,
        0.0,
        0.0,
        1.0,
        0.0,
        -30.0,
        0.0,
        -105.0,
        1.0
      ],
      "mesh": 12,
      "name": "[8298790]21_Metselwerk Wit HV WF 100mm, Aberson 35N17 Rollaag"
    },
    {
      "matrix": [
        1.0,
        0.0,
        -8.881784E-16,
        0.0,
        0.0,
        1.0,
        0.0,
        0.0,
        8.881784E-16,
        0.0,
        1.0,
        0.0,
        2.84859872,
        5.92758942,
        0.27,
        1.0
      ],
      "mesh": 13,
      "name": "[8299162]AL_Zinken_Dakafwerking_Standaard"
    }
  ],
  "scene": 0,
  "scenes": [
    {
      "nodes": [
        0,
        1,
        2,
        3,
        4,
        5,
        6,
        7,
        8,
        9,
        10,
        11,
        12,
        13
      ],
      "name": "Cell"
    }
  ]
}