{
  "accessors": [
    {
      "bufferView": 0,
      "componentType": 5123,
      "count": 1971,
      "type": "SCALAR",
      "max": [
        368.0
      ],
      "min": [
        0.0
      ]
    },
    {
      "bufferView": 1,
      "componentType": 5126,
      "count": 369,
      "type": "VEC3",
      "max": [
        95.27,
        5.958595,
        5.83609
      ],
      "min": [
        90.44,
        5.759,
        5.48745346
      ]
    },
    {
      "bufferView": 2,
      "componentType": 5123,
      "count": 4341,
      "type": "SCALAR",
      "max": [
        852.0
      ],
      "min": [
        0.0
      ]
    },
    {
      "bufferView": 3,
      "componentType": 5126,
      "count": 853,
      "type": "VEC3",
      "max": [
        95.7,
        5.85199976,
        5.717
      ],
      "min": [
        90.00001,
        5.76699972,
        5.46054
      ]
    }
  ],
  "asset": {
    "copyright": "2019 (c) Smart2IT B.V.",
    "generator": "Smart2IT Revit glTF Exporter v0.5",
    "version": "2.0"
  },
  "buffers": [
    {
      "uri": "03_006_000.bin",
      "byteLength": 27292
    }
  ],
  "bufferViews": [
    {
      "buffer": 0,
      "byteLength": 3944,
      "target": 34963
    },
    {
      "buffer": 0,
      "byteOffset": 3944,
      "byteLength": 4428,
      "target": 34962
    },
    {
      "buffer": 0,
      "byteOffset": 8372,
      "byteLength": 8684,
      "target": 34963
    },
    {
      "buffer": 0,
      "byteOffset": 17056,
      "byteLength": 10236,
      "target": 34962
    }
  ],
  "materials": [
    {
      "name": "h2_staal_verzinkt",
      "pbrMetallicRoughness": {
        "baseColorFactor": [
          0.470588237,
          0.470588237,
          0.470588237,
          1.0
        ],
        "metallicFactor": 0.0
      }
    },
    {
      "name": "h7_zink",
      "pbrMetallicRoughness": {
        "baseColorFactor": [
          0.470588237,
          0.470588237,
          0.470588237,
          1.0
        ],
        "metallicFactor": 0.0
      }
    }
  ],
  "meshes": [
    {
      "primitives": [
        {
          "attributes": {
            "POSITION": 1
          },
          "indices": 0,
          "material": 0
        },
        {
          "attributes": {
            "POSITION": 3
          },
          "indices": 2,
          "material": 1
        }
      ]
    }
  ],
  "nodes": [
    {
      "matrix": [
        1.0,
        0.0,
        0.0,
        0.0,
        0.0,
        1.0,
        0.0,
        0.0,
        0.0,
        0.0,
        1.0,
        0.0,
        -90.0,
        0.0,
        -15.0,
        1.0
      ],
      "mesh": 0,
      "name": "[8272738]52_Zinken bakgoot B44"
    }
  ],
  "scene": 0,
  "scenes": [
    {
      "nodes": [
        0
      ],
      "name": "Cell"
    }
  ]
}