{
  "accessors": [
    {
      "bufferView": 0,
      "componentType": 5123,
      "count": 1569,
      "type": "SCALAR",
      "max": [
        304.0
      ],
      "min": [
        0.0
      ]
    },
    {
      "bufferView": 1,
      "componentType": 5126,
      "count": 305,
      "type": "VEC3",
      "max": [
        0.347,
        -0.711500049,
        -0.1315
      ],
      "min": [
        0.316999972,
        -0.861922264,
        -0.174043283
      ]
    },
    {
      "bufferView": 2,
      "componentType": 5121,
      "count": 36,
      "type": "SCALAR",
      "max": [
        7.0
      ],
      "min": [
        0.0
      ]
    },
    {
      "bufferView": 3,
      "componentType": 5126,
      "count": 8,
      "type": "VEC3",
      "max": [
        0.304999977,
        -0.134,
        -0.0805
      ],
      "min": [
        -0.304999977,
        -1.35400009,
        -0.104499996
      ]
    },
    {
      "bufferView": 4,
      "componentType": 5121,
      "count": 144,
      "type": "SCALAR",
      "max": [
        23.0
      ],
      "min": [
        0.0
      ]
    },
    {
      "bufferView": 5,
      "componentType": 5126,
      "count": 24,
      "type": "VEC3",
      "max": [
        0.387,
        -0.052,
        -0.061499998
      ],
      "min": [
        -0.387,
        -1.436,
        -0.1315
      ]
    },
    {
      "bufferView": 6,
      "componentType": 5121,
      "count": 144,
      "type": "SCALAR",
      "max": [
        34.0
      ],
      "min": [
        0.0
      ]
    },
    {
      "bufferView": 7,
      "componentType": 5126,
      "count": 35,
      "type": "VEC3",
      "max": [
        0.438999981,
        0.0,
        1.675393E-18
      ],
      "min": [
        -0.438999981,
        -1.488,
        -0.112
      ]
    },
    {
      "bufferView": 8,
      "componentType": 5121,
      "count": 576,
      "type": "SCALAR",
      "max": [
        71.0
      ],
      "min": [
        0.0
      ]
    },
    {
      "bufferView": 9,
      "componentType": 5126,
      "count": 72,
      "type": "VEC3",
      "max": [
        0.472,
        1.521,
        -0.022
      ],
      "min": [
        -0.472,
        -0.031,
        -0.212
      ]
    }
  ],
  "asset": {
    "copyright": "2019 (c) Smart2IT B.V.",
    "generator": "Smart2IT Revit glTF Exporter v0.5",
    "version": "2.0"
  },
  "buffers": [
    {
      "uri": "03_003_000.bin",
      "byteLength": 9368
    }
  ],
  "bufferViews": [
    {
      "buffer": 0,
      "byteLength": 3140,
      "target": 34963
    },
    {
      "buffer": 0,
      "byteOffset": 3140,
      "byteLength": 3660,
      "target": 34962
    },
    {
      "buffer": 0,
      "byteOffset": 6800,
      "byteLength": 36,
      "target": 34963
    },
    {
      "buffer": 0,
      "byteOffset": 6836,
      "byteLength": 96,
      "target": 34962
    },
    {
      "buffer": 0,
      "byteOffset": 6932,
      "byteLength": 144,
      "target": 34963
    },
    {
      "buffer": 0,
      "byteOffset": 7076,
      "byteLength": 288,
      "target": 34962
    },
    {
      "buffer": 0,
      "byteOffset": 7364,
      "byteLength": 144,
      "target": 34963
    },
    {
      "buffer": 0,
      "byteOffset": 7508,
      "byteLength": 420,
      "target": 34962
    },
    {
      "buffer": 0,
      "byteOffset": 7928,
      "byteLength": 576,
      "target": 34963
    },
    {
      "buffer": 0,
      "byteOffset": 8504,
      "byteLength": 864,
      "target": 34962
    }
  ],
  "materials": [
    {
      "name": "h4_aluminium",
      "pbrMetallicRoughness": {
        "baseColorFactor": [
          0.956862748,
          0.956862748,
          0.956862748,
          1.0
        ],
        "metallicFactor": 0.0
      }
    },
    {
      "name": "o1_glas_grijs",
      "pbrMetallicRoughness": {
        "baseColorFactor": [
          0.627451,
          0.627451,
          0.627451,
          0.25
        ],
        "metallicFactor": 0.0
      },
      "alphaMode": "BLEND"
    },
    {
      "name": "n6_kunststof_RAL 6005",
      "pbrMetallicRoughness": {
        "baseColorFactor": [
          0.184313729,
          0.270588249,
          0.219607845,
          1.0
        ],
        "metallicFactor": 0.0
      }
    },
    {
      "name": "n6_kunststof_RAL 9010",
      "pbrMetallicRoughness": {
        "metallicFactor": 0.0
      }
    },
    {
      "name": "i2_naaldhout (vuren)",
      "pbrMetallicRoughness": {
        "baseColorFactor": [
          0.9019608,
          0.8352941,
          0.6745098,
          1.0
        ],
        "metallicFactor": 0.0
      }
    }
  ],
  "meshes": [
    {
      "primitives": [
        {
          "attributes": {
            "POSITION": 1
          },
          "indices": 0,
          "material": 0
        },
        {
          "attributes": {
            "POSITION": 3
          },
          "indices": 2,
          "material": 1
        },
        {
          "attributes": {
            "POSITION": 5
          },
          "indices": 4,
          "material": 2
        },
        {
          "attributes": {
            "POSITION": 7
          },
          "indices": 6,
          "material": 3
        }
      ]
    },
    {
      "primitives": [
        {
          "attributes": {
            "POSITION": 9
          },
          "indices": 8,
          "material": 4
        }
      ]
    }
  ],
  "nodes": [
    {
      "matrix": [
        1.0,
        0.0,
        8.23853552E-15,
        0.0,
        0.0,
        1.0,
        0.0,
        0.0,
        -8.23853552E-15,
        0.0,
        1.0,
        0.0,
        2.85,
        8.116,
        0.2,
        1.0
      ],
      "mesh": 0,
      "name": "[6409445]Merk G-001.sp"
    },
    {
      "matrix": [
        1.0,
        0.0,
        8.23853552E-15,
        0.0,
        0.0,
        1.0,
        0.0,
        0.0,
        -8.23853552E-15,
        0.0,
        1.0,
        0.0,
        2.85,
        6.628,
        0.2,
        1.0
      ],
      "mesh": 1,
      "name": "[6409446]DEL_Merk G"
    }
  ],
  "scene": 0,
  "scenes": [
    {
      "nodes": [
        0,
        1
      ],
      "name": "Cell"
    }
  ]
}